<?xml version="1.0" encoding="UTF-8" standalone="no"?>
<!-- Created with Inkscape (http://www.inkscape.org/) -->

<svg
   sodipodi:docname="plano_complejo.svg"
   inkscape:version="1.1.1 (3bf5ae0d25, 2021-09-20)"
   id="svg2770"
   version="1.1"
   viewBox="0 0 210 297"
   height="297mm"
   width="210mm"
   inkscape:export-filename="C:\Users\Luis Hervella\OneDrive - Universidade da Coruña\Docencia\Libro_Calculo_GEI\Figuras\plano_complejo.png"
   inkscape:export-xdpi="96"
   inkscape:export-ydpi="96"
   xmlns:inkscape="http://www.inkscape.org/namespaces/inkscape"
   xmlns:sodipodi="http://sodipodi.sourceforge.net/DTD/sodipodi-0.dtd"
   xmlns="http://www.w3.org/2000/svg"
   xmlns:svg="http://www.w3.org/2000/svg"
   xmlns:ns1="http://www.iki.fi/pav/software/textext/">
  <sodipodi:namedview
     id="namedview2772"
     pagecolor="#ffffff"
     bordercolor="#666666"
     borderopacity="1.0"
     inkscape:pageshadow="2"
     inkscape:pageopacity="0.0"
     inkscape:pagecheckerboard="0"
     inkscape:document-units="mm"
     showgrid="false"
     inkscape:zoom="0.64052329"
     inkscape:cx="397.33138"
     inkscape:cy="561.25984"
     inkscape:window-width="1920"
     inkscape:window-height="1017"
     inkscape:window-x="2552"
     inkscape:window-y="96"
     inkscape:window-maximized="1"
     inkscape:current-layer="layer1" />
  <defs
     id="defs2767">
    <marker
       style="overflow:visible"
       id="marker3397"
       refX="0.0"
       refY="0.0"
       orient="auto"
       inkscape:stockid="Arrow1Mstart"
       inkscape:isstock="true">
      <path
         transform="scale(0.4) translate(10,0)"
         style="fill-rule:evenodd;fill:context-stroke;stroke:context-stroke;stroke-width:1.0pt"
         d="M 0.0,0.0 L 5.0,-5.0 L -12.5,0.0 L 5.0,5.0 L 0.0,0.0 z "
         id="path3395" />
    </marker>
    <marker
       style="overflow:visible;"
       id="Arrow1Mend"
       refX="0.0"
       refY="0.0"
       orient="auto"
       inkscape:stockid="Arrow1Mend"
       inkscape:isstock="true">
      <path
         transform="scale(0.4) rotate(180) translate(10,0)"
         style="fill-rule:evenodd;fill:context-stroke;stroke:context-stroke;stroke-width:1.0pt;"
         d="M 0.0,0.0 L 5.0,-5.0 L -12.5,0.0 L 5.0,5.0 L 0.0,0.0 z "
         id="path3128" />
    </marker>
    <marker
       style="overflow:visible"
       id="Arrow1Mstart"
       refX="0.0"
       refY="0.0"
       orient="auto"
       inkscape:stockid="Arrow1Mstart"
       inkscape:isstock="true">
      <path
         transform="scale(0.4) translate(10,0)"
         style="fill-rule:evenodd;fill:context-stroke;stroke:context-stroke;stroke-width:1.0pt"
         d="M 0.0,0.0 L 5.0,-5.0 L -12.5,0.0 L 5.0,5.0 L 0.0,0.0 z "
         id="path3125" />
    </marker>
  </defs>
  <g
     inkscape:label="Capa 1"
     inkscape:groupmode="layer"
     id="layer1">
    <path
       style="fill:none;stroke:#000000;stroke-width:1;stroke-linecap:butt;stroke-linejoin:miter;stroke-miterlimit:4;stroke-dasharray:none;stroke-opacity:1;marker-start:url(#Arrow1Mstart);marker-mid:url(#marker3397);marker-end:url(#Arrow1Mend)"
       d="M 95,65 V 175"
       id="path2864"
       sodipodi:nodetypes="cc" />
    <path
       style="fill:none;stroke:#000000;stroke-width:1;stroke-linecap:butt;stroke-linejoin:miter;stroke-miterlimit:4;stroke-dasharray:none;stroke-opacity:1;marker-start:url(#marker3397);marker-end:url(#Arrow1Mend)"
       d="M 45,120 H 145"
       id="path2866"
       sodipodi:nodetypes="cc" />
    <path
       style="fill:none;stroke:#000000;stroke-width:0.5;stroke-linecap:butt;stroke-linejoin:miter;stroke-miterlimit:4;stroke-dasharray:1.5, 0.5;stroke-dashoffset:0;stroke-opacity:1"
       d="m 95,110 h 20 v 9.79138"
       id="path3450"
       sodipodi:nodetypes="ccc" />
    <path
       style="fill:none;stroke:#000000;stroke-width:0.5;stroke-linecap:butt;stroke-linejoin:miter;stroke-miterlimit:4;stroke-dasharray:none;stroke-opacity:1"
       d="m 90,100 h 10"
       id="path3698"
       sodipodi:nodetypes="cc" />
    <path
       style="fill:none;stroke:#000000;stroke-width:0.264583px;stroke-linecap:butt;stroke-linejoin:miter;stroke-opacity:1"
       d="m 115,119.79138 v 0"
       id="path3870" />
    <path
       style="fill:none;stroke:#000000;stroke-width:0.5;stroke-linecap:butt;stroke-linejoin:miter;stroke-miterlimit:4;stroke-dasharray:none;stroke-opacity:1"
       d="m 135,115 v 10"
       id="path4119"
       sodipodi:nodetypes="cc" />
    <g
       transform="matrix(1.59326,0,0,1.59326,102.05186,63.038773)"
       ns1:version="1.6.0"
       ns1:texconverter="pdflatex"
       ns1:pdfconverter="inkscape"
       ns1:text="$\\mathbb{C}$"
       ns1:preamble="C:\Users\Luis Hervella\AppData\Roaming\inkscape\extensions\textext\default_packages.tex"
       ns1:scale="4.516335595987325"
       ns1:alignment="middle center"
       ns1:stroke-to-path="0"
       ns1:inkscapeversion="1.1.1"
       ns1:jacobian_sqrt="1.59326"
       id="g4261">
      <defs
         id="id-19e1c624-1e3b-4886-8a2e-e40ec8d31be6">
        <g
           id="id-7e0343f9-006c-4c42-b260-e9511a8e3ac2">
          <symbol
             overflow="visible"
             id="id-6ae920d3-3dcc-4533-bc1d-663d9d34b530">
            <path
               style="stroke:none;stroke-width:0"
               d=""
               id="id-49541c38-64ef-4e12-9268-28202536ed58" />
          </symbol>
          <symbol
             overflow="visible"
             id="id-c0e5edb7-8fdd-4c0e-b84f-11fe7d0d7120">
            <path
               style="stroke:none;stroke-width:0"
               d="m 6.546875,-6.6875 c 0,-0.171875 0,-0.328125 -0.171875,-0.328125 0,0 -0.15625,0 -0.171875,0.171875 C 6.171875,-6.5625 5.9375,-6.5625 5.875,-6.5625 c -0.359375,0 -0.703125,-0.140625 -0.90625,-0.234375 -0.5,-0.21875 -0.9375,-0.21875 -1.09375,-0.21875 -1.65625,0 -3.5,1.046875 -3.5,3.59375 0,2.546875 1.796875,3.609375 3.515625,3.609375 0.53125,0 1.25,-0.109375 1.96875,-0.546875 0.453125,-0.28125 0.96875,-0.78125 0.96875,-0.921875 0,-0.140625 -0.15625,-0.203125 -0.203125,-0.203125 -0.078125,0 -0.109375,0.03125 -0.21875,0.140625 -0.578125,0.65625 -1.46875,1.046875 -2.34375,1.046875 -1.546875,0 -1.9375,-1.5625 -1.9375,-3.109375 0,-1.953125 0.71875,-3.265625 1.78125,-3.265625 0.75,0 1.953125,0.734375 2.28125,1.78125 0.03125,0.09375 0.0625,0.203125 0.1875,0.203125 0.171875,0 0.171875,-0.171875 0.171875,-0.34375 z m -0.34375,1.03125 c -0.125,-0.171875 -0.25,-0.3125 -0.5,-0.5625 0.046875,0.015625 0.125,0.015625 0.171875,0.015625 0.109375,0 0.25,-0.03125 0.328125,-0.078125 z M 2.65625,-6.4375 c -0.21875,0.234375 -0.875,1.078125 -0.875,3.03125 0,1 0.140625,2.375 1.046875,3.09375 C 1.1875,-0.84375 0.71875,-2.1875 0.71875,-3.40625 c 0,-1.84375 1,-2.71875 1.9375,-3.046875 z m 0,0"
               id="id-80e800de-0f36-4d5f-aa7a-0805af5c8687" />
          </symbol>
        </g>
      </defs>
      <g
         id="id-738cddf2-05ad-487b-9197-7a057b345b05"
         transform="translate(-149.087,-127.749)">
        <g
           style="fill:#000000;fill-opacity:1"
           id="id-26dbde8e-bed2-4ff7-a4d4-4c8fbc1fb0f1">
          <g
             transform="translate(148.712,134.765)"
             id="g4257">
            <path
               style="stroke:none;stroke-width:0"
               d="m 6.546875,-6.6875 c 0,-0.171875 0,-0.328125 -0.171875,-0.328125 0,0 -0.15625,0 -0.171875,0.171875 C 6.171875,-6.5625 5.9375,-6.5625 5.875,-6.5625 c -0.359375,0 -0.703125,-0.140625 -0.90625,-0.234375 -0.5,-0.21875 -0.9375,-0.21875 -1.09375,-0.21875 -1.65625,0 -3.5,1.046875 -3.5,3.59375 0,2.546875 1.796875,3.609375 3.515625,3.609375 0.53125,0 1.25,-0.109375 1.96875,-0.546875 0.453125,-0.28125 0.96875,-0.78125 0.96875,-0.921875 0,-0.140625 -0.15625,-0.203125 -0.203125,-0.203125 -0.078125,0 -0.109375,0.03125 -0.21875,0.140625 -0.578125,0.65625 -1.46875,1.046875 -2.34375,1.046875 -1.546875,0 -1.9375,-1.5625 -1.9375,-3.109375 0,-1.953125 0.71875,-3.265625 1.78125,-3.265625 0.75,0 1.953125,0.734375 2.28125,1.78125 0.03125,0.09375 0.0625,0.203125 0.1875,0.203125 0.171875,0 0.171875,-0.171875 0.171875,-0.34375 z m -0.34375,1.03125 c -0.125,-0.171875 -0.25,-0.3125 -0.5,-0.5625 0.046875,0.015625 0.125,0.015625 0.171875,0.015625 0.109375,0 0.25,-0.03125 0.328125,-0.078125 z M 2.65625,-6.4375 c -0.21875,0.234375 -0.875,1.078125 -0.875,3.03125 0,1 0.140625,2.375 1.046875,3.09375 C 1.1875,-0.84375 0.71875,-2.1875 0.71875,-3.40625 c 0,-1.84375 1,-2.71875 1.9375,-3.046875 z m 0,0"
               id="id-22673529-0282-4630-8349-237fe3307043" />
          </g>
        </g>
      </g>
    </g>
    <g
       transform="matrix(1.0983518,0,0,1.0967958,45.000137,93.455411)"
       ns1:version="1.6.0"
       ns1:texconverter="pdflatex"
       ns1:pdfconverter="inkscape"
       ns1:text="$i=(0,1)$"
       ns1:preamble="C:\Users\Luis Hervella\AppData\Roaming\inkscape\extensions\textext\default_packages.tex"
       ns1:scale="4.516335595987325"
       ns1:alignment="middle center"
       ns1:stroke-to-path="0"
       ns1:inkscapeversion="1.1.1"
       ns1:jacobian_sqrt="1.59326"
       id="g4714">
      <defs
         id="id-b7af75cd-3e63-4447-bdfd-32081da280ea">
        <g
           id="id-799fe7f0-3a6f-4711-b912-3a000a21adbc">
          <symbol
             overflow="visible"
             id="id-ba2b9f2f-b92f-4a8a-8b67-94fcc3365459">
            <path
               style="stroke:none;stroke-width:0"
               d=""
               id="id-94e3fa3d-1697-44b6-a7e1-16dceee50ae0" />
          </symbol>
          <symbol
             overflow="visible"
             id="id-c67d5afe-13c4-453f-8352-e8a1fb8435d6">
            <path
               style="stroke:none;stroke-width:0"
               d="m 2.828125,-6.234375 c 0,-0.203125 -0.140625,-0.359375 -0.359375,-0.359375 -0.28125,0 -0.546875,0.265625 -0.546875,0.53125 0,0.1875 0.140625,0.359375 0.375,0.359375 0.234375,0 0.53125,-0.234375 0.53125,-0.53125 z m -0.75,3.75 c 0.109375,-0.28125 0.109375,-0.3125 0.21875,-0.578125 0.078125,-0.203125 0.125,-0.34375 0.125,-0.53125 0,-0.4375 -0.3125,-0.8125 -0.8125,-0.8125 -0.9375,0 -1.3125,1.453125 -1.3125,1.53125 0,0.109375 0.09375,0.109375 0.109375,0.109375 0.109375,0 0.109375,-0.03125 0.15625,-0.1875 0.28125,-0.9375 0.671875,-1.234375 1.015625,-1.234375 0.078125,0 0.25,0 0.25,0.3125 0,0.21875 -0.078125,0.421875 -0.109375,0.53125 -0.078125,0.25 -0.53125,1.40625 -0.6875,1.84375 -0.109375,0.25 -0.234375,0.578125 -0.234375,0.796875 0,0.46875 0.34375,0.8125 0.8125,0.8125 0.9375,0 1.3125,-1.4375 1.3125,-1.53125 0,-0.109375 -0.09375,-0.109375 -0.125,-0.109375 -0.09375,0 -0.09375,0.03125 -0.140625,0.1875 -0.1875,0.625 -0.515625,1.234375 -1.015625,1.234375 -0.171875,0 -0.25,-0.09375 -0.25,-0.328125 0,-0.25 0.0625,-0.390625 0.296875,-1 z m 0,0"
               id="id-58314dbd-8171-430d-b052-6e724aad05ed" />
          </symbol>
          <symbol
             overflow="visible"
             id="id-ccc74f5c-311e-45f2-9a54-c78777aac062">
            <path
               style="stroke:none;stroke-width:0"
               d="m 2.03125,-0.015625 c 0,-0.65625 -0.25,-1.046875 -0.640625,-1.046875 -0.328125,0 -0.53125,0.25 -0.53125,0.53125 C 0.859375,-0.265625 1.0625,0 1.390625,0 1.5,0 1.640625,-0.046875 1.734375,-0.125 1.765625,-0.15625 1.78125,-0.15625 1.78125,-0.15625 c 0.015625,0 0.015625,0 0.015625,0.140625 0,0.75 -0.34375,1.34375 -0.671875,1.671875 -0.109375,0.109375 -0.109375,0.125 -0.109375,0.15625 0,0.078125 0.046875,0.109375 0.09375,0.109375 0.109375,0 0.921875,-0.765625 0.921875,-1.9375 z m 0,0"
               id="id-d34b977f-83dc-4af9-8a36-8688f9716a82" />
          </symbol>
          <symbol
             overflow="visible"
             id="id-d05d31f5-72bb-4077-a750-8f9f8d2342f2">
            <path
               style="stroke:none;stroke-width:0"
               d=""
               id="id-7c3c8145-1b27-49f5-b6d0-6086e17da004" />
          </symbol>
          <symbol
             overflow="visible"
             id="id-1c7ccc04-c1d7-4f5c-b320-faba8ec24fd6">
            <path
               style="stroke:none;stroke-width:0"
               d="m 6.84375,-3.265625 c 0.15625,0 0.34375,0 0.34375,-0.1875 C 7.1875,-3.65625 7,-3.65625 6.859375,-3.65625 h -5.96875 c -0.140625,0 -0.328125,0 -0.328125,0.203125 0,0.1875 0.1875,0.1875 0.328125,0.1875 z m 0.015625,1.9375 c 0.140625,0 0.328125,0 0.328125,-0.203125 0,-0.1875 -0.1875,-0.1875 -0.34375,-0.1875 H 0.890625 c -0.140625,0 -0.328125,0 -0.328125,0.1875 0,0.203125 0.1875,0.203125 0.328125,0.203125 z m 0,0"
               id="id-de472edb-ec35-4f3a-a6e0-70d4ae7a529a" />
          </symbol>
          <symbol
             overflow="visible"
             id="id-49411247-1fdc-4b53-9bed-292b4378b42d">
            <path
               style="stroke:none;stroke-width:0"
               d="m 3.296875,2.390625 c 0,-0.03125 0,-0.046875 -0.171875,-0.21875 C 1.890625,0.921875 1.5625,-0.96875 1.5625,-2.5 c 0,-1.734375 0.375,-3.46875 1.609375,-4.703125 0.125,-0.125 0.125,-0.140625 0.125,-0.171875 0,-0.078125 -0.03125,-0.109375 -0.09375,-0.109375 -0.109375,0 -1,0.6875 -1.59375,1.953125 -0.5,1.09375 -0.625,2.203125 -0.625,3.03125 0,0.78125 0.109375,1.984375 0.65625,3.125 C 2.25,1.84375 3.09375,2.5 3.203125,2.5 c 0.0625,0 0.09375,-0.03125 0.09375,-0.109375 z m 0,0"
               id="id-ca690341-2463-480b-94a3-a252ed8b1c6a" />
          </symbol>
          <symbol
             overflow="visible"
             id="id-1a68cfc0-b711-4279-9a49-300b1a20157e">
            <path
               style="stroke:none;stroke-width:0"
               d="m 4.578125,-3.1875 c 0,-0.796875 -0.046875,-1.59375 -0.390625,-2.328125 -0.453125,-0.96875 -1.28125,-1.125 -1.6875,-1.125 -0.609375,0 -1.328125,0.265625 -1.75,1.1875 -0.3125,0.6875 -0.359375,1.46875 -0.359375,2.265625 0,0.75 0.03125,1.640625 0.453125,2.40625 0.421875,0.796875 1.15625,1 1.640625,1 0.53125,0 1.296875,-0.203125 1.734375,-1.15625 0.3125,-0.6875 0.359375,-1.46875 0.359375,-2.25 z M 2.484375,0 C 2.09375,0 1.5,-0.25 1.328125,-1.203125 1.21875,-1.796875 1.21875,-2.71875 1.21875,-3.3125 c 0,-0.640625 0,-1.296875 0.078125,-1.828125 0.1875,-1.1875 0.9375,-1.28125 1.1875,-1.28125 0.328125,0 0.984375,0.1875 1.171875,1.171875 0.109375,0.5625 0.109375,1.3125 0.109375,1.9375 0,0.75 0,1.421875 -0.109375,2.0625 C 3.5,-0.296875 2.9375,0 2.484375,0 Z m 0,0"
               id="id-5a70b1fb-e3ee-4b28-91d7-6ac7e0d9619e" />
          </symbol>
          <symbol
             overflow="visible"
             id="id-3da432b5-2e1d-45c5-843c-403dc774025c">
            <path
               style="stroke:none;stroke-width:0"
               d="m 2.9375,-6.375 c 0,-0.25 0,-0.265625 -0.234375,-0.265625 C 2.078125,-6 1.203125,-6 0.890625,-6 v 0.3125 c 0.203125,0 0.78125,0 1.296875,-0.265625 v 5.171875 c 0,0.359375 -0.03125,0.46875 -0.921875,0.46875 h -0.3125 V 0 c 0.34375,-0.03125 1.203125,-0.03125 1.609375,-0.03125 0.390625,0 1.265625,0 1.609375,0.03125 v -0.3125 h -0.3125 c -0.90625,0 -0.921875,-0.109375 -0.921875,-0.46875 z m 0,0"
               id="id-22530b1f-7d06-4030-9cdd-1f297b92b34f" />
          </symbol>
          <symbol
             overflow="visible"
             id="id-4e0c4467-62c5-4ed8-bfd3-b28a08fb5df6">
            <path
               style="stroke:none;stroke-width:0"
               d="m 2.875,-2.5 c 0,-0.765625 -0.109375,-1.96875 -0.65625,-3.109375 -0.59375,-1.21875 -1.453125,-1.875 -1.546875,-1.875 -0.0625,0 -0.109375,0.046875 -0.109375,0.109375 0,0.03125 0,0.046875 0.1875,0.234375 0.984375,0.984375 1.546875,2.5625 1.546875,4.640625 0,1.71875 -0.359375,3.46875 -1.59375,4.71875 C 0.5625,2.34375 0.5625,2.359375 0.5625,2.390625 0.5625,2.453125 0.609375,2.5 0.671875,2.5 0.765625,2.5 1.671875,1.8125 2.25,0.546875 2.765625,-0.546875 2.875,-1.65625 2.875,-2.5 Z m 0,0"
               id="id-d4adf0f3-e9b5-47be-a8a5-ec737a468f50" />
          </symbol>
        </g>
      </defs>
      <g
         id="id-340af360-8330-42e8-b9b3-d88d212cb499"
         transform="translate(-149.009,-127.281)">
        <g
           style="fill:#000000;fill-opacity:1"
           id="id-3d68296e-8529-4ddc-bdcc-d589380df8d7">
          <g
             transform="translate(148.712,134.765)"
             id="g4688">
            <path
               style="stroke:none;stroke-width:0"
               d="m 2.828125,-6.234375 c 0,-0.203125 -0.140625,-0.359375 -0.359375,-0.359375 -0.28125,0 -0.546875,0.265625 -0.546875,0.53125 0,0.1875 0.140625,0.359375 0.375,0.359375 0.234375,0 0.53125,-0.234375 0.53125,-0.53125 z m -0.75,3.75 c 0.109375,-0.28125 0.109375,-0.3125 0.21875,-0.578125 0.078125,-0.203125 0.125,-0.34375 0.125,-0.53125 0,-0.4375 -0.3125,-0.8125 -0.8125,-0.8125 -0.9375,0 -1.3125,1.453125 -1.3125,1.53125 0,0.109375 0.09375,0.109375 0.109375,0.109375 0.109375,0 0.109375,-0.03125 0.15625,-0.1875 0.28125,-0.9375 0.671875,-1.234375 1.015625,-1.234375 0.078125,0 0.25,0 0.25,0.3125 0,0.21875 -0.078125,0.421875 -0.109375,0.53125 -0.078125,0.25 -0.53125,1.40625 -0.6875,1.84375 -0.109375,0.25 -0.234375,0.578125 -0.234375,0.796875 0,0.46875 0.34375,0.8125 0.8125,0.8125 0.9375,0 1.3125,-1.4375 1.3125,-1.53125 0,-0.109375 -0.09375,-0.109375 -0.125,-0.109375 -0.09375,0 -0.09375,0.03125 -0.140625,0.1875 -0.1875,0.625 -0.515625,1.234375 -1.015625,1.234375 -0.171875,0 -0.25,-0.09375 -0.25,-0.328125 0,-0.25 0.0625,-0.390625 0.296875,-1 z m 0,0"
               id="id-9ad841c5-ad40-4e90-9d29-19e9e7a0e1c8" />
          </g>
        </g>
        <g
           style="fill:#000000;fill-opacity:1"
           id="id-76d27b94-0228-42d5-997d-45ff8893e2fd">
          <g
             transform="translate(154.912,134.765)"
             id="g4692">
            <path
               style="stroke:none;stroke-width:0"
               d="m 6.84375,-3.265625 c 0.15625,0 0.34375,0 0.34375,-0.1875 C 7.1875,-3.65625 7,-3.65625 6.859375,-3.65625 h -5.96875 c -0.140625,0 -0.328125,0 -0.328125,0.203125 0,0.1875 0.1875,0.1875 0.328125,0.1875 z m 0.015625,1.9375 c 0.140625,0 0.328125,0 0.328125,-0.203125 0,-0.1875 -0.1875,-0.1875 -0.34375,-0.1875 H 0.890625 c -0.140625,0 -0.328125,0 -0.328125,0.1875 0,0.203125 0.1875,0.203125 0.328125,0.203125 z m 0,0"
               id="id-52fe9435-fbc9-46e8-bbb5-e956e83fc1a0" />
          </g>
        </g>
        <g
           style="fill:#000000;fill-opacity:1"
           id="id-68534290-0d49-41a3-bba8-6e66ef38ab2c">
          <g
             transform="translate(165.431,134.765)"
             id="g4696">
            <path
               style="stroke:none;stroke-width:0"
               d="m 3.296875,2.390625 c 0,-0.03125 0,-0.046875 -0.171875,-0.21875 C 1.890625,0.921875 1.5625,-0.96875 1.5625,-2.5 c 0,-1.734375 0.375,-3.46875 1.609375,-4.703125 0.125,-0.125 0.125,-0.140625 0.125,-0.171875 0,-0.078125 -0.03125,-0.109375 -0.09375,-0.109375 -0.109375,0 -1,0.6875 -1.59375,1.953125 -0.5,1.09375 -0.625,2.203125 -0.625,3.03125 0,0.78125 0.109375,1.984375 0.65625,3.125 C 2.25,1.84375 3.09375,2.5 3.203125,2.5 c 0.0625,0 0.09375,-0.03125 0.09375,-0.109375 z m 0,0"
               id="id-46606516-5eee-4f49-b991-677a1f4ceb79" />
          </g>
          <g
             transform="translate(169.305,134.765)"
             id="g4699">
            <path
               style="stroke:none;stroke-width:0"
               d="m 4.578125,-3.1875 c 0,-0.796875 -0.046875,-1.59375 -0.390625,-2.328125 -0.453125,-0.96875 -1.28125,-1.125 -1.6875,-1.125 -0.609375,0 -1.328125,0.265625 -1.75,1.1875 -0.3125,0.6875 -0.359375,1.46875 -0.359375,2.265625 0,0.75 0.03125,1.640625 0.453125,2.40625 0.421875,0.796875 1.15625,1 1.640625,1 0.53125,0 1.296875,-0.203125 1.734375,-1.15625 0.3125,-0.6875 0.359375,-1.46875 0.359375,-2.25 z M 2.484375,0 C 2.09375,0 1.5,-0.25 1.328125,-1.203125 1.21875,-1.796875 1.21875,-2.71875 1.21875,-3.3125 c 0,-0.640625 0,-1.296875 0.078125,-1.828125 0.1875,-1.1875 0.9375,-1.28125 1.1875,-1.28125 0.328125,0 0.984375,0.1875 1.171875,1.171875 0.109375,0.5625 0.109375,1.3125 0.109375,1.9375 0,0.75 0,1.421875 -0.109375,2.0625 C 3.5,-0.296875 2.9375,0 2.484375,0 Z m 0,0"
               id="id-8d6a2834-0df6-4697-94f6-a9b05ccaf646" />
          </g>
        </g>
        <g
           style="fill:#000000;fill-opacity:1"
           id="id-d074ec72-aa9d-4472-bd9b-66721b9fad88">
          <g
             transform="translate(174.284,134.765)"
             id="g4703">
            <path
               style="stroke:none;stroke-width:0"
               d="m 2.03125,-0.015625 c 0,-0.65625 -0.25,-1.046875 -0.640625,-1.046875 -0.328125,0 -0.53125,0.25 -0.53125,0.53125 C 0.859375,-0.265625 1.0625,0 1.390625,0 1.5,0 1.640625,-0.046875 1.734375,-0.125 1.765625,-0.15625 1.78125,-0.15625 1.78125,-0.15625 c 0.015625,0 0.015625,0 0.015625,0.140625 0,0.75 -0.34375,1.34375 -0.671875,1.671875 -0.109375,0.109375 -0.109375,0.125 -0.109375,0.15625 0,0.078125 0.046875,0.109375 0.09375,0.109375 0.109375,0 0.921875,-0.765625 0.921875,-1.9375 z m 0,0"
               id="id-9d4b1a3d-2b2a-48a9-8125-e4799025d8e9" />
          </g>
        </g>
        <g
           style="fill:#000000;fill-opacity:1"
           id="id-344e5417-7628-4e76-b361-a007fe4005db">
          <g
             transform="translate(178.712,134.765)"
             id="g4707">
            <path
               style="stroke:none;stroke-width:0"
               d="m 2.9375,-6.375 c 0,-0.25 0,-0.265625 -0.234375,-0.265625 C 2.078125,-6 1.203125,-6 0.890625,-6 v 0.3125 c 0.203125,0 0.78125,0 1.296875,-0.265625 v 5.171875 c 0,0.359375 -0.03125,0.46875 -0.921875,0.46875 h -0.3125 V 0 c 0.34375,-0.03125 1.203125,-0.03125 1.609375,-0.03125 0.390625,0 1.265625,0 1.609375,0.03125 v -0.3125 h -0.3125 c -0.90625,0 -0.921875,-0.109375 -0.921875,-0.46875 z m 0,0"
               id="id-8f2c5346-b57c-4ab8-adc5-9ce088ccb47a" />
          </g>
          <g
             transform="translate(183.693,134.765)"
             id="g4710">
            <path
               style="stroke:none;stroke-width:0"
               d="m 2.875,-2.5 c 0,-0.765625 -0.109375,-1.96875 -0.65625,-3.109375 -0.59375,-1.21875 -1.453125,-1.875 -1.546875,-1.875 -0.0625,0 -0.109375,0.046875 -0.109375,0.109375 0,0.03125 0,0.046875 0.1875,0.234375 0.984375,0.984375 1.546875,2.5625 1.546875,4.640625 0,1.71875 -0.359375,3.46875 -1.59375,4.71875 C 0.5625,2.34375 0.5625,2.359375 0.5625,2.390625 0.5625,2.453125 0.609375,2.5 0.671875,2.5 0.765625,2.5 1.671875,1.8125 2.25,0.546875 2.765625,-0.546875 2.875,-1.65625 2.875,-2.5 Z m 0,0"
               id="id-c364e226-2b7f-4bd0-8f85-bca5c25d78b2" />
          </g>
        </g>
      </g>
    </g>
    <g
       transform="matrix(1.2374254,0,0,1.0554241,107.99954,98.000396)"
       ns1:version="1.6.0"
       ns1:texconverter="pdflatex"
       ns1:pdfconverter="inkscape"
       ns1:text="$(a,b)$"
       ns1:preamble="C:\Users\Luis Hervella\AppData\Roaming\inkscape\extensions\textext\default_packages.tex"
       ns1:scale="4.516335595987325"
       ns1:alignment="middle center"
       ns1:stroke-to-path="0"
       ns1:inkscapeversion="1.1.1"
       ns1:jacobian_sqrt="1.59326"
       id="g5047">
      <defs
         id="id-6f1144df-0fb0-4849-b6c4-90c984bbc9a2">
        <g
           id="id-6caadada-bb45-4ae0-9731-7044d10b3a66">
          <symbol
             overflow="visible"
             id="id-43d5c723-4e66-4dea-8492-9cce26a86ab8">
            <path
               style="stroke:none;stroke-width:0"
               d=""
               id="id-dd9c47da-0294-4696-bb77-4c5550d2bb55" />
          </symbol>
          <symbol
             overflow="visible"
             id="id-79312811-ff0b-4765-94d6-97bf310c8737">
            <path
               style="stroke:none;stroke-width:0"
               d="m 3.296875,2.390625 c 0,-0.03125 0,-0.046875 -0.171875,-0.21875 C 1.890625,0.921875 1.5625,-0.96875 1.5625,-2.5 c 0,-1.734375 0.375,-3.46875 1.609375,-4.703125 0.125,-0.125 0.125,-0.140625 0.125,-0.171875 0,-0.078125 -0.03125,-0.109375 -0.09375,-0.109375 -0.109375,0 -1,0.6875 -1.59375,1.953125 -0.5,1.09375 -0.625,2.203125 -0.625,3.03125 0,0.78125 0.109375,1.984375 0.65625,3.125 C 2.25,1.84375 3.09375,2.5 3.203125,2.5 c 0.0625,0 0.09375,-0.03125 0.09375,-0.109375 z m 0,0"
               id="id-01f44dbc-d4f1-4272-8153-c092186f942c" />
          </symbol>
          <symbol
             overflow="visible"
             id="id-9e240901-cb7f-4fb0-ba27-a2be4611afc3">
            <path
               style="stroke:none;stroke-width:0"
               d="m 2.875,-2.5 c 0,-0.765625 -0.109375,-1.96875 -0.65625,-3.109375 -0.59375,-1.21875 -1.453125,-1.875 -1.546875,-1.875 -0.0625,0 -0.109375,0.046875 -0.109375,0.109375 0,0.03125 0,0.046875 0.1875,0.234375 0.984375,0.984375 1.546875,2.5625 1.546875,4.640625 0,1.71875 -0.359375,3.46875 -1.59375,4.71875 C 0.5625,2.34375 0.5625,2.359375 0.5625,2.390625 0.5625,2.453125 0.609375,2.5 0.671875,2.5 0.765625,2.5 1.671875,1.8125 2.25,0.546875 2.765625,-0.546875 2.875,-1.65625 2.875,-2.5 Z m 0,0"
               id="id-cb9a0a48-b32e-4624-8d49-7d783f791832" />
          </symbol>
          <symbol
             overflow="visible"
             id="id-2f3f319a-bedd-4b7b-a9ff-5be0def1bc3a">
            <path
               style="stroke:none;stroke-width:0"
               d=""
               id="id-cd008533-15f8-4174-866a-5120be8af13e" />
          </symbol>
          <symbol
             overflow="visible"
             id="id-2f02c266-0457-4664-89e1-ca7af537ac64">
            <path
               style="stroke:none;stroke-width:0"
               d="M 3.71875,-3.765625 C 3.53125,-4.140625 3.25,-4.40625 2.796875,-4.40625 c -1.15625,0 -2.390625,1.46875 -2.390625,2.921875 0,0.9375 0.546875,1.59375 1.3125,1.59375 0.203125,0 0.703125,-0.046875 1.296875,-0.75 0.078125,0.421875 0.4375,0.75 0.90625,0.75 0.359375,0 0.578125,-0.234375 0.75,-0.546875 0.15625,-0.359375 0.296875,-0.96875 0.296875,-0.984375 0,-0.109375 -0.09375,-0.109375 -0.125,-0.109375 -0.09375,0 -0.109375,0.046875 -0.140625,0.1875 -0.171875,0.640625 -0.34375,1.234375 -0.75,1.234375 -0.28125,0 -0.296875,-0.265625 -0.296875,-0.453125 0,-0.21875 0.015625,-0.3125 0.125,-0.75 C 3.890625,-1.71875 3.90625,-1.828125 4,-2.203125 L 4.359375,-3.59375 c 0.0625,-0.28125 0.0625,-0.296875 0.0625,-0.34375 0,-0.171875 -0.109375,-0.265625 -0.28125,-0.265625 -0.25,0 -0.390625,0.21875 -0.421875,0.4375 z M 3.078125,-1.1875 C 3.015625,-1 3.015625,-0.984375 2.875,-0.8125 2.4375,-0.265625 2.03125,-0.109375 1.75,-0.109375 c -0.5,0 -0.640625,-0.546875 -0.640625,-0.9375 0,-0.5 0.3125,-1.71875 0.546875,-2.1875 0.3125,-0.578125 0.75,-0.953125 1.15625,-0.953125 0.640625,0 0.78125,0.8125 0.78125,0.875 0,0.0625 -0.015625,0.125 -0.03125,0.171875 z m 0,0"
               id="id-bbe7baa9-c9d3-43e8-9b38-dc4fa4f44374" />
          </symbol>
          <symbol
             overflow="visible"
             id="id-f08bf415-0f41-4734-bc27-1a97b03b78f0">
            <path
               style="stroke:none;stroke-width:0"
               d="m 2.03125,-0.015625 c 0,-0.65625 -0.25,-1.046875 -0.640625,-1.046875 -0.328125,0 -0.53125,0.25 -0.53125,0.53125 C 0.859375,-0.265625 1.0625,0 1.390625,0 1.5,0 1.640625,-0.046875 1.734375,-0.125 1.765625,-0.15625 1.78125,-0.15625 1.78125,-0.15625 c 0.015625,0 0.015625,0 0.015625,0.140625 0,0.75 -0.34375,1.34375 -0.671875,1.671875 -0.109375,0.109375 -0.109375,0.125 -0.109375,0.15625 0,0.078125 0.046875,0.109375 0.09375,0.109375 0.109375,0 0.921875,-0.765625 0.921875,-1.9375 z m 0,0"
               id="id-45f5e537-b75c-4489-b82f-33c5e640bf48" />
          </symbol>
          <symbol
             overflow="visible"
             id="id-6bab61e1-c37f-49ed-87ff-cf739638c1e1">
            <path
               style="stroke:none;stroke-width:0"
               d="m 2.375,-6.8125 c 0,0 0,-0.109375 -0.125,-0.109375 -0.21875,0 -0.953125,0.078125 -1.21875,0.109375 -0.078125,0 -0.1875,0.015625 -0.1875,0.1875 0,0.125 0.09375,0.125 0.25,0.125 0.46875,0 0.484375,0.0625 0.484375,0.171875 0,0.0625 -0.078125,0.40625 -0.125,0.609375 l -0.828125,3.25 c -0.109375,0.5 -0.15625,0.671875 -0.15625,1.015625 0,0.9375 0.53125,1.5625 1.265625,1.5625 1.171875,0 2.40625,-1.484375 2.40625,-2.921875 0,-0.90625 -0.53125,-1.59375 -1.328125,-1.59375 -0.453125,0 -0.875,0.296875 -1.171875,0.59375 z M 1.453125,-3.046875 C 1.5,-3.265625 1.5,-3.28125 1.59375,-3.390625 2.078125,-4.03125 2.53125,-4.1875 2.796875,-4.1875 c 0.359375,0 0.625,0.296875 0.625,0.9375 0,0.59375 -0.328125,1.734375 -0.515625,2.109375 -0.328125,0.671875 -0.78125,1.03125 -1.171875,1.03125 -0.34375,0 -0.671875,-0.265625 -0.671875,-1 0,-0.203125 0,-0.390625 0.15625,-1.015625 z m 0,0"
               id="id-bde4e640-4fd6-4f17-ba07-f998c7ecf1f9" />
          </symbol>
        </g>
      </defs>
      <g
         id="id-7f58fceb-c599-4b39-9502-7b31206418fd"
         transform="translate(-149.696,-127.281)">
        <g
           style="fill:#000000;fill-opacity:1"
           id="id-4afc61e2-ea35-4f7c-8405-ec4aa98a59d3">
          <g
             transform="translate(148.712,134.765)"
             id="g5028">
            <path
               style="stroke:none;stroke-width:0"
               d="m 3.296875,2.390625 c 0,-0.03125 0,-0.046875 -0.171875,-0.21875 C 1.890625,0.921875 1.5625,-0.96875 1.5625,-2.5 c 0,-1.734375 0.375,-3.46875 1.609375,-4.703125 0.125,-0.125 0.125,-0.140625 0.125,-0.171875 0,-0.078125 -0.03125,-0.109375 -0.09375,-0.109375 -0.109375,0 -1,0.6875 -1.59375,1.953125 -0.5,1.09375 -0.625,2.203125 -0.625,3.03125 0,0.78125 0.109375,1.984375 0.65625,3.125 C 2.25,1.84375 3.09375,2.5 3.203125,2.5 c 0.0625,0 0.09375,-0.03125 0.09375,-0.109375 z m 0,0"
               id="id-e44f528b-6dc8-409f-b99f-c00885da515d" />
          </g>
        </g>
        <g
           style="fill:#000000;fill-opacity:1"
           id="id-2f6ae691-40f8-4b4a-831f-42d7a65954e3">
          <g
             transform="translate(152.587,134.765)"
             id="g5032">
            <path
               style="stroke:none;stroke-width:0"
               d="M 3.71875,-3.765625 C 3.53125,-4.140625 3.25,-4.40625 2.796875,-4.40625 c -1.15625,0 -2.390625,1.46875 -2.390625,2.921875 0,0.9375 0.546875,1.59375 1.3125,1.59375 0.203125,0 0.703125,-0.046875 1.296875,-0.75 0.078125,0.421875 0.4375,0.75 0.90625,0.75 0.359375,0 0.578125,-0.234375 0.75,-0.546875 0.15625,-0.359375 0.296875,-0.96875 0.296875,-0.984375 0,-0.109375 -0.09375,-0.109375 -0.125,-0.109375 -0.09375,0 -0.109375,0.046875 -0.140625,0.1875 -0.171875,0.640625 -0.34375,1.234375 -0.75,1.234375 -0.28125,0 -0.296875,-0.265625 -0.296875,-0.453125 0,-0.21875 0.015625,-0.3125 0.125,-0.75 C 3.890625,-1.71875 3.90625,-1.828125 4,-2.203125 L 4.359375,-3.59375 c 0.0625,-0.28125 0.0625,-0.296875 0.0625,-0.34375 0,-0.171875 -0.109375,-0.265625 -0.28125,-0.265625 -0.25,0 -0.390625,0.21875 -0.421875,0.4375 z M 3.078125,-1.1875 C 3.015625,-1 3.015625,-0.984375 2.875,-0.8125 2.4375,-0.265625 2.03125,-0.109375 1.75,-0.109375 c -0.5,0 -0.640625,-0.546875 -0.640625,-0.9375 0,-0.5 0.3125,-1.71875 0.546875,-2.1875 0.3125,-0.578125 0.75,-0.953125 1.15625,-0.953125 0.640625,0 0.78125,0.8125 0.78125,0.875 0,0.0625 -0.015625,0.125 -0.03125,0.171875 z m 0,0"
               id="id-f089f3cd-d4ec-4b50-aa11-27d6ea9165ac" />
          </g>
          <g
             transform="translate(157.853,134.765)"
             id="g5035">
            <path
               style="stroke:none;stroke-width:0"
               d="m 2.03125,-0.015625 c 0,-0.65625 -0.25,-1.046875 -0.640625,-1.046875 -0.328125,0 -0.53125,0.25 -0.53125,0.53125 C 0.859375,-0.265625 1.0625,0 1.390625,0 1.5,0 1.640625,-0.046875 1.734375,-0.125 1.765625,-0.15625 1.78125,-0.15625 1.78125,-0.15625 c 0.015625,0 0.015625,0 0.015625,0.140625 0,0.75 -0.34375,1.34375 -0.671875,1.671875 -0.109375,0.109375 -0.109375,0.125 -0.109375,0.15625 0,0.078125 0.046875,0.109375 0.09375,0.109375 0.109375,0 0.921875,-0.765625 0.921875,-1.9375 z m 0,0"
               id="id-a279cc4b-c97f-480a-b694-8316fb492094" />
          </g>
        </g>
        <g
           style="fill:#000000;fill-opacity:1"
           id="id-549038ed-1b38-4130-b9e1-38693180f205">
          <g
             transform="translate(162.285,134.765)"
             id="g5039">
            <path
               style="stroke:none;stroke-width:0"
               d="m 2.375,-6.8125 c 0,0 0,-0.109375 -0.125,-0.109375 -0.21875,0 -0.953125,0.078125 -1.21875,0.109375 -0.078125,0 -0.1875,0.015625 -0.1875,0.1875 0,0.125 0.09375,0.125 0.25,0.125 0.46875,0 0.484375,0.0625 0.484375,0.171875 0,0.0625 -0.078125,0.40625 -0.125,0.609375 l -0.828125,3.25 c -0.109375,0.5 -0.15625,0.671875 -0.15625,1.015625 0,0.9375 0.53125,1.5625 1.265625,1.5625 1.171875,0 2.40625,-1.484375 2.40625,-2.921875 0,-0.90625 -0.53125,-1.59375 -1.328125,-1.59375 -0.453125,0 -0.875,0.296875 -1.171875,0.59375 z M 1.453125,-3.046875 C 1.5,-3.265625 1.5,-3.28125 1.59375,-3.390625 2.078125,-4.03125 2.53125,-4.1875 2.796875,-4.1875 c 0.359375,0 0.625,0.296875 0.625,0.9375 0,0.59375 -0.328125,1.734375 -0.515625,2.109375 -0.328125,0.671875 -0.78125,1.03125 -1.171875,1.03125 -0.34375,0 -0.671875,-0.265625 -0.671875,-1 0,-0.203125 0,-0.390625 0.15625,-1.015625 z m 0,0"
               id="id-9b7a8a5a-8b05-446f-a3a6-c652ef425d60" />
          </g>
        </g>
        <g
           style="fill:#000000;fill-opacity:1"
           id="id-344dd3a3-0d53-4f3d-a07f-d36bf8d0e0b6">
          <g
             transform="translate(166.556,134.765)"
             id="g5043">
            <path
               style="stroke:none;stroke-width:0"
               d="m 2.875,-2.5 c 0,-0.765625 -0.109375,-1.96875 -0.65625,-3.109375 -0.59375,-1.21875 -1.453125,-1.875 -1.546875,-1.875 -0.0625,0 -0.109375,0.046875 -0.109375,0.109375 0,0.03125 0,0.046875 0.1875,0.234375 0.984375,0.984375 1.546875,2.5625 1.546875,4.640625 0,1.71875 -0.359375,3.46875 -1.59375,4.71875 C 0.5625,2.34375 0.5625,2.359375 0.5625,2.390625 0.5625,2.453125 0.609375,2.5 0.671875,2.5 0.765625,2.5 1.671875,1.8125 2.25,0.546875 2.765625,-0.546875 2.875,-1.65625 2.875,-2.5 Z m 0,0"
               id="id-2690613a-0401-4fb0-ba20-04b6a61b82f5" />
          </g>
        </g>
      </g>
    </g>
    <g
       transform="matrix(1.1480832,0,0,1.0140518,122.99957,125.00038)"
       ns1:version="1.6.0"
       ns1:texconverter="pdflatex"
       ns1:pdfconverter="inkscape"
       ns1:text="$(c,0)$"
       ns1:preamble="C:\Users\Luis Hervella\AppData\Roaming\inkscape\extensions\textext\default_packages.tex"
       ns1:scale="4.516335595987325"
       ns1:alignment="middle center"
       ns1:stroke-to-path="0"
       ns1:inkscapeversion="1.1.1"
       ns1:jacobian_sqrt="1.59326"
       id="g5415">
      <defs
         id="id-eb35a950-4c1a-440f-9040-e48d70be4209">
        <g
           id="id-763aba2e-01ce-447d-abea-10b181b172d6">
          <symbol
             overflow="visible"
             id="id-d16e318f-ddd8-4b33-90f2-430350c18c7e">
            <path
               style="stroke:none;stroke-width:0"
               d=""
               id="id-2bd0dae4-3b3a-4057-aad3-e25d3d80d872" />
          </symbol>
          <symbol
             overflow="visible"
             id="id-c7c515cb-6749-4134-b862-e7c9856b73d0">
            <path
               style="stroke:none;stroke-width:0"
               d="m 3.296875,2.390625 c 0,-0.03125 0,-0.046875 -0.171875,-0.21875 C 1.890625,0.921875 1.5625,-0.96875 1.5625,-2.5 c 0,-1.734375 0.375,-3.46875 1.609375,-4.703125 0.125,-0.125 0.125,-0.140625 0.125,-0.171875 0,-0.078125 -0.03125,-0.109375 -0.09375,-0.109375 -0.109375,0 -1,0.6875 -1.59375,1.953125 -0.5,1.09375 -0.625,2.203125 -0.625,3.03125 0,0.78125 0.109375,1.984375 0.65625,3.125 C 2.25,1.84375 3.09375,2.5 3.203125,2.5 c 0.0625,0 0.09375,-0.03125 0.09375,-0.109375 z m 0,0"
               id="id-e71ee00c-7261-4275-b667-7130c9a9ef6d" />
          </symbol>
          <symbol
             overflow="visible"
             id="id-79155557-487e-41c9-bd8c-dbaa74f1c318">
            <path
               style="stroke:none;stroke-width:0"
               d="m 4.578125,-3.1875 c 0,-0.796875 -0.046875,-1.59375 -0.390625,-2.328125 -0.453125,-0.96875 -1.28125,-1.125 -1.6875,-1.125 -0.609375,0 -1.328125,0.265625 -1.75,1.1875 -0.3125,0.6875 -0.359375,1.46875 -0.359375,2.265625 0,0.75 0.03125,1.640625 0.453125,2.40625 0.421875,0.796875 1.15625,1 1.640625,1 0.53125,0 1.296875,-0.203125 1.734375,-1.15625 0.3125,-0.6875 0.359375,-1.46875 0.359375,-2.25 z M 2.484375,0 C 2.09375,0 1.5,-0.25 1.328125,-1.203125 1.21875,-1.796875 1.21875,-2.71875 1.21875,-3.3125 c 0,-0.640625 0,-1.296875 0.078125,-1.828125 0.1875,-1.1875 0.9375,-1.28125 1.1875,-1.28125 0.328125,0 0.984375,0.1875 1.171875,1.171875 0.109375,0.5625 0.109375,1.3125 0.109375,1.9375 0,0.75 0,1.421875 -0.109375,2.0625 C 3.5,-0.296875 2.9375,0 2.484375,0 Z m 0,0"
               id="id-3ac07f76-ba2a-458d-a732-5612fca0bca4" />
          </symbol>
          <symbol
             overflow="visible"
             id="id-e2ac6870-6c53-4370-9009-a0b1e55e2727">
            <path
               style="stroke:none;stroke-width:0"
               d="m 2.875,-2.5 c 0,-0.765625 -0.109375,-1.96875 -0.65625,-3.109375 -0.59375,-1.21875 -1.453125,-1.875 -1.546875,-1.875 -0.0625,0 -0.109375,0.046875 -0.109375,0.109375 0,0.03125 0,0.046875 0.1875,0.234375 0.984375,0.984375 1.546875,2.5625 1.546875,4.640625 0,1.71875 -0.359375,3.46875 -1.59375,4.71875 C 0.5625,2.34375 0.5625,2.359375 0.5625,2.390625 0.5625,2.453125 0.609375,2.5 0.671875,2.5 0.765625,2.5 1.671875,1.8125 2.25,0.546875 2.765625,-0.546875 2.875,-1.65625 2.875,-2.5 Z m 0,0"
               id="id-17c35aff-cadf-4e40-81ea-fa31c3beec0b" />
          </symbol>
          <symbol
             overflow="visible"
             id="id-ff11ea27-c359-4a64-9ea7-d90e33303386">
            <path
               style="stroke:none;stroke-width:0"
               d=""
               id="id-6fe72c0a-f48b-4f54-a80a-4c5da0b66abf" />
          </symbol>
          <symbol
             overflow="visible"
             id="id-054cd1fe-a871-4485-abbe-721e7f8aeb15">
            <path
               style="stroke:none;stroke-width:0"
               d="m 3.953125,-3.78125 c -0.171875,0 -0.296875,0 -0.4375,0.125 -0.171875,0.15625 -0.1875,0.328125 -0.1875,0.390625 0,0.25 0.1875,0.359375 0.375,0.359375 0.28125,0 0.546875,-0.25 0.546875,-0.640625 0,-0.484375 -0.46875,-0.859375 -1.171875,-0.859375 -1.34375,0 -2.671875,1.421875 -2.671875,2.828125 0,0.90625 0.578125,1.6875 1.625,1.6875 1.421875,0 2.25,-1.0625 2.25,-1.171875 0,-0.0625 -0.046875,-0.140625 -0.109375,-0.140625 -0.0625,0 -0.078125,0.03125 -0.140625,0.109375 -0.78125,0.984375 -1.875,0.984375 -1.984375,0.984375 -0.625,0 -0.90625,-0.484375 -0.90625,-1.09375 0,-0.40625 0.203125,-1.375 0.546875,-1.984375 0.3125,-0.578125 0.859375,-1 1.40625,-1 0.328125,0 0.71875,0.125 0.859375,0.40625 z m 0,0"
               id="id-beb2f9ca-b069-4477-bd64-a7d4480a7b11" />
          </symbol>
          <symbol
             overflow="visible"
             id="id-61d963f6-95ab-4c0d-bb72-d503abbcefdf">
            <path
               style="stroke:none;stroke-width:0"
               d="m 2.03125,-0.015625 c 0,-0.65625 -0.25,-1.046875 -0.640625,-1.046875 -0.328125,0 -0.53125,0.25 -0.53125,0.53125 C 0.859375,-0.265625 1.0625,0 1.390625,0 1.5,0 1.640625,-0.046875 1.734375,-0.125 1.765625,-0.15625 1.78125,-0.15625 1.78125,-0.15625 c 0.015625,0 0.015625,0 0.015625,0.140625 0,0.75 -0.34375,1.34375 -0.671875,1.671875 -0.109375,0.109375 -0.109375,0.125 -0.109375,0.15625 0,0.078125 0.046875,0.109375 0.09375,0.109375 0.109375,0 0.921875,-0.765625 0.921875,-1.9375 z m 0,0"
               id="id-680ae624-c620-4244-bcba-8431b724ce1f" />
          </symbol>
        </g>
      </defs>
      <g
         id="id-4c1f9bad-4322-46c5-aaeb-b3538d5ca246"
         transform="translate(-149.696,-127.281)">
        <g
           style="fill:#000000;fill-opacity:1"
           id="id-2ba03a95-68ec-4094-9be3-9016b2e76103">
          <g
             transform="translate(148.712,134.765)"
             id="g5397">
            <path
               style="stroke:none;stroke-width:0"
               d="m 3.296875,2.390625 c 0,-0.03125 0,-0.046875 -0.171875,-0.21875 C 1.890625,0.921875 1.5625,-0.96875 1.5625,-2.5 c 0,-1.734375 0.375,-3.46875 1.609375,-4.703125 0.125,-0.125 0.125,-0.140625 0.125,-0.171875 0,-0.078125 -0.03125,-0.109375 -0.09375,-0.109375 -0.109375,0 -1,0.6875 -1.59375,1.953125 -0.5,1.09375 -0.625,2.203125 -0.625,3.03125 0,0.78125 0.109375,1.984375 0.65625,3.125 C 2.25,1.84375 3.09375,2.5 3.203125,2.5 c 0.0625,0 0.09375,-0.03125 0.09375,-0.109375 z m 0,0"
               id="id-2b6fbe83-6e4f-4bf2-9800-3a4950b24a58" />
          </g>
        </g>
        <g
           style="fill:#000000;fill-opacity:1"
           id="id-b66d5cb4-4460-4b07-93ae-4e9afab9b842">
          <g
             transform="translate(152.587,134.765)"
             id="g5401">
            <path
               style="stroke:none;stroke-width:0"
               d="m 3.953125,-3.78125 c -0.171875,0 -0.296875,0 -0.4375,0.125 -0.171875,0.15625 -0.1875,0.328125 -0.1875,0.390625 0,0.25 0.1875,0.359375 0.375,0.359375 0.28125,0 0.546875,-0.25 0.546875,-0.640625 0,-0.484375 -0.46875,-0.859375 -1.171875,-0.859375 -1.34375,0 -2.671875,1.421875 -2.671875,2.828125 0,0.90625 0.578125,1.6875 1.625,1.6875 1.421875,0 2.25,-1.0625 2.25,-1.171875 0,-0.0625 -0.046875,-0.140625 -0.109375,-0.140625 -0.0625,0 -0.078125,0.03125 -0.140625,0.109375 -0.78125,0.984375 -1.875,0.984375 -1.984375,0.984375 -0.625,0 -0.90625,-0.484375 -0.90625,-1.09375 0,-0.40625 0.203125,-1.375 0.546875,-1.984375 0.3125,-0.578125 0.859375,-1 1.40625,-1 0.328125,0 0.71875,0.125 0.859375,0.40625 z m 0,0"
               id="id-ed3251b8-35a3-4b19-9460-78e4d5e777ae" />
          </g>
          <g
             transform="translate(156.899,134.765)"
             id="g5404">
            <path
               style="stroke:none;stroke-width:0"
               d="m 2.03125,-0.015625 c 0,-0.65625 -0.25,-1.046875 -0.640625,-1.046875 -0.328125,0 -0.53125,0.25 -0.53125,0.53125 C 0.859375,-0.265625 1.0625,0 1.390625,0 1.5,0 1.640625,-0.046875 1.734375,-0.125 1.765625,-0.15625 1.78125,-0.15625 1.78125,-0.15625 c 0.015625,0 0.015625,0 0.015625,0.140625 0,0.75 -0.34375,1.34375 -0.671875,1.671875 -0.109375,0.109375 -0.109375,0.125 -0.109375,0.15625 0,0.078125 0.046875,0.109375 0.09375,0.109375 0.109375,0 0.921875,-0.765625 0.921875,-1.9375 z m 0,0"
               id="id-4ee1e0f0-09d7-4d34-af6f-90c258643780" />
          </g>
        </g>
        <g
           style="fill:#000000;fill-opacity:1"
           id="id-8f73bab4-a82c-4d6a-b16a-87f9cef6af6f">
          <g
             transform="translate(161.326,134.765)"
             id="g5408">
            <path
               style="stroke:none;stroke-width:0"
               d="m 4.578125,-3.1875 c 0,-0.796875 -0.046875,-1.59375 -0.390625,-2.328125 -0.453125,-0.96875 -1.28125,-1.125 -1.6875,-1.125 -0.609375,0 -1.328125,0.265625 -1.75,1.1875 -0.3125,0.6875 -0.359375,1.46875 -0.359375,2.265625 0,0.75 0.03125,1.640625 0.453125,2.40625 0.421875,0.796875 1.15625,1 1.640625,1 0.53125,0 1.296875,-0.203125 1.734375,-1.15625 0.3125,-0.6875 0.359375,-1.46875 0.359375,-2.25 z M 2.484375,0 C 2.09375,0 1.5,-0.25 1.328125,-1.203125 1.21875,-1.796875 1.21875,-2.71875 1.21875,-3.3125 c 0,-0.640625 0,-1.296875 0.078125,-1.828125 0.1875,-1.1875 0.9375,-1.28125 1.1875,-1.28125 0.328125,0 0.984375,0.1875 1.171875,1.171875 0.109375,0.5625 0.109375,1.3125 0.109375,1.9375 0,0.75 0,1.421875 -0.109375,2.0625 C 3.5,-0.296875 2.9375,0 2.484375,0 Z m 0,0"
               id="id-49816bba-05f7-4c32-8c1c-8f04629a59b5" />
          </g>
          <g
             transform="translate(166.307,134.765)"
             id="g5411">
            <path
               style="stroke:none;stroke-width:0"
               d="m 2.875,-2.5 c 0,-0.765625 -0.109375,-1.96875 -0.65625,-3.109375 -0.59375,-1.21875 -1.453125,-1.875 -1.546875,-1.875 -0.0625,0 -0.109375,0.046875 -0.109375,0.109375 0,0.03125 0,0.046875 0.1875,0.234375 0.984375,0.984375 1.546875,2.5625 1.546875,4.640625 0,1.71875 -0.359375,3.46875 -1.59375,4.71875 C 0.5625,2.34375 0.5625,2.359375 0.5625,2.390625 0.5625,2.453125 0.609375,2.5 0.671875,2.5 0.765625,2.5 1.671875,1.8125 2.25,0.546875 2.765625,-0.546875 2.875,-1.65625 2.875,-2.5 Z m 0,0"
               id="id-8fb208d1-9540-4c96-9003-39418228a5cc" />
          </g>
        </g>
      </g>
    </g>
  </g>
</svg>
